<svg id="Group_1412" data-name="Group 1412" xmlns="http://www.w3.org/2000/svg" width="48.679" height="48.678" viewBox="0 0 48.679 48.678"><path id="Path_8403" data-name="Path 8403" d="M656.358,451.886a4.749,4.749,0,0,0-3.623-2.035c-1.248-.123-2.505-.169-3.76-.182-2.2-.024-4.4-.013-6.594.015-.97.011-1.942.07-2.909.162a5.094,5.094,0,0,0-2.46.879,4.759,4.759,0,0,0-2.017,3.61c-.123,1.246-.167,2.5-.182,3.758-.024,2.2-.013,4.4.015,6.594.011.97.07,1.944.162,2.909a5.1,5.1,0,0,0,.878,2.461,4.765,4.765,0,0,0,3.612,2.017c1.262.123,2.534.17,3.8.182,2.345.019,4.688,0,7.031-.028a15.22,15.22,0,0,0,2.948-.234,4.666,4.666,0,0,0,3.315-2.314,6.507,6.507,0,0,0,.743-3.05c.057-1.882.083-3.766.13-6.017-.049-1.715-.088-3.8-.18-5.877A5.355,5.355,0,0,0,656.358,451.886ZM646.115,468.05a7.087,7.087,0,1,1,7.079-7.088A7.076,7.076,0,0,1,646.115,468.05Zm7.35-12.788a1.658,1.658,0,0,1,0-3.317,1.658,1.658,0,1,1,0,3.317Z" transform="translate(-621.769 -436.627)" fill="#fff"></path><path id="Path_8404" data-name="Path 8404" d="M643.526,453.794a4.6,4.6,0,1,0,4.6,4.72A4.6,4.6,0,0,0,643.526,453.794Z" transform="translate(-619.191 -434.052)" fill="#fff"></path><path id="Path_8405" data-name="Path 8405" d="M650.107,440.627a24.339,24.339,0,1,0,24.339,24.339A24.342,24.342,0,0,0,650.107,440.627Zm12.93,28.516a1.568,1.568,0,0,0-.034.2,15.249,15.249,0,0,1-.268,2.845,6.631,6.631,0,0,1-4.284,5.075,9.915,9.915,0,0,1-3.184.563c-.327.012-.653.041-.98.062h-8.362a1.626,1.626,0,0,0-.205-.034,14.606,14.606,0,0,1-3.033-.31,6.608,6.608,0,0,1-4.809-4.04,9.673,9.673,0,0,1-.639-3.385c-.012-.327-.041-.653-.064-.98v-8.4c.012-.067.03-.134.036-.2a25.651,25.651,0,0,1,.236-2.589,6.626,6.626,0,0,1,5.262-5.574,15.81,15.81,0,0,1,3.765-.326c2.671-.018,5.341,0,8.012.023a13.455,13.455,0,0,1,2.867.266,6.629,6.629,0,0,1,5.064,4.3,9.882,9.882,0,0,1,.555,3.166c.012.327.041.653.062.98Z" transform="translate(-625.768 -440.627)" fill="#fff"></path></svg>