<svg id="Group_1410" data-name="Group 1410" xmlns="http://www.w3.org/2000/svg" width="48.679" height="48.678" viewBox="0 0 48.679 48.678"><path id="Path_8379" data-name="Path 8379" d="M484.736,397.716v-.054a.259.259,0,0,1-.037.054Z" transform="translate(-458.937 -375.164)" fill="#fff"></path><path id="Path_8380" data-name="Path 8380" d="M492.1,382.871a24.339,24.339,0,1,0,24.339,24.339A24.339,24.339,0,0,0,492.1,382.871Zm-6.645,35.972H480.24V403.148h5.218ZM482.849,401h-.035a2.981,2.981,0,1,1,.035,0Zm21.423,17.839h-5.218v-8.4c0-2.11-.755-3.55-2.644-3.55a2.862,2.862,0,0,0-2.677,1.911,3.542,3.542,0,0,0-.172,1.272v8.765h-5.216s.067-14.223,0-15.694h5.216v2.223a5.176,5.176,0,0,1,4.7-2.591c3.432,0,6.009,2.241,6.009,7.063Z" transform="translate(-467.763 -382.871)" fill="#fff"></path></svg>