<svg width="49" height="49" viewBox="0 0 49 49" fill="none" xmlns="http://www.w3.org/2000/svg"><path d="M24.339 0C19.5252 0 14.8195 1.42746 10.817 4.10187C6.81446 6.77627 3.69485 10.5775 1.85269 15.0249C0.0105314 19.4722 -0.471443 24.366 0.467683 29.0873C1.40681 33.8086 3.72485 38.1454 7.12872 41.5493C10.5326 44.9531 14.8694 47.2712 19.5907 48.2103C24.312 49.1495 29.2058 48.6674 33.6531 46.8253C38.1005 44.9831 41.9017 41.8636 44.5761 37.861C47.2505 33.8585 48.678 29.1528 48.678 24.339C48.6777 17.884 46.1134 11.6934 41.549 7.12903C36.9846 2.56464 30.794 0.000265197 24.339 0Z" fill="white"></path><path d="M30.9014 13H34.5816L26.5415 22.319L36 35H28.5941L22.7935 27.309L16.1563 35H12.4739L21.0736 25.0323L12 13H19.5939L24.8372 20.0298L30.9014 13ZM29.6098 32.7662H31.649L18.4859 15.1165H16.2976L29.6098 32.7662Z" fill="#0040D4"></path></svg>