<svg id="Group_1411" data-name="Group 1411" xmlns="http://www.w3.org/2000/svg" width="48.679" height="48.678" viewBox="0 0 48.679 48.678"><path id="Path_8397" data-name="Path 8397" d="M722.876,398.39a.663.663,0,0,0,.475-.165.6.6,0,0,0,.18-.459v-3.943a.468.468,0,0,0-.18-.383.727.727,0,0,0-.475-.146.647.647,0,0,0-.441.146.486.486,0,0,0-.167.383v3.943a.632.632,0,0,0,.157.459A.581.581,0,0,0,722.876,398.39Z" transform="translate(-698.752 -377.554)" fill="#fff"></path><path id="Path_8398" data-name="Path 8398" d="M725.611,401.788a1.289,1.289,0,0,0-.607.156,2.086,2.086,0,0,0-.561.456v-2.869h-1.329v8.908h1.329v-.5a1.649,1.649,0,0,0,.561.443,1.523,1.523,0,0,0,.686.143,1.087,1.087,0,0,0,.892-.37,1.629,1.629,0,0,0,.308-1.068v-3.649a1.958,1.958,0,0,0-.328-1.228A1.137,1.137,0,0,0,725.611,401.788Zm-.073,5.111a.723.723,0,0,1-.112.454.428.428,0,0,1-.355.141.738.738,0,0,1-.316-.071,1.121,1.121,0,0,1-.312-.232V403.1a.938.938,0,0,1,.271-.2.66.66,0,0,1,.278-.065.5.5,0,0,1,.409.172.778.778,0,0,1,.138.506Z" transform="translate(-698.401 -374.542)" fill="#fff"></path><path id="Path_8399" data-name="Path 8399" d="M717.039,400.827h1.531v7.612h1.48v-7.612h1.532v-1.3h-4.543Z" transform="translate(-701.537 -374.538)" fill="#fff"></path><path id="Path_8400" data-name="Path 8400" d="M722.631,405.962a1.869,1.869,0,0,1-.407.355.757.757,0,0,1-.365.136.317.317,0,0,1-.269-.105.552.552,0,0,1-.081-.336v-5.041h-1.314v5.494a1.4,1.4,0,0,0,.23.878.812.812,0,0,0,.688.3,1.577,1.577,0,0,0,.761-.209,2.8,2.8,0,0,0,.758-.608v.722h1.314v-6.572h-1.314Z" transform="translate(-699.899 -373.708)" fill="#fff"></path><path id="Path_8401" data-name="Path 8401" d="M731.122,382.871a24.339,24.339,0,1,0,24.34,24.339A24.34,24.34,0,0,0,731.122,382.871Zm2.936,14.85h1.384v5.2a.55.55,0,0,0,.09.347.332.332,0,0,0,.281.111.814.814,0,0,0,.388-.143,1.954,1.954,0,0,0,.426-.365v-5.152h1.387v6.786h-1.387v-.752a2.943,2.943,0,0,1-.8.633,1.774,1.774,0,0,1-.8.219.868.868,0,0,1-.726-.309,1.425,1.425,0,0,1-.243-.907Zm-5.148,1.55a1.55,1.55,0,0,1,.558-1.253,2.275,2.275,0,0,1,1.506-.467,2.045,2.045,0,0,1,1.412.491,1.636,1.636,0,0,1,.548,1.269v3.5a1.773,1.773,0,0,1-.537,1.368,2.117,2.117,0,0,1-1.486.5,2.043,2.043,0,0,1-1.456-.514,1.8,1.8,0,0,1-.545-1.375Zm-3.775-3.963,1.013,3.678h.1l.967-3.678H728.8l-1.818,5.383v3.815h-1.559v-3.646l-1.859-5.552Zm18.157,19.359a4.448,4.448,0,0,1-4.447,4.448H723.4a4.447,4.447,0,0,1-4.445-4.448v-3.573a4.448,4.448,0,0,1,4.445-4.448h15.448a4.449,4.449,0,0,1,4.447,4.448Z" transform="translate(-706.783 -382.871)" fill="#fff"></path><path id="Path_8402" data-name="Path 8402" d="M727.863,400.871a1.98,1.98,0,0,0-1.438.535,1.853,1.853,0,0,0-.558,1.4v2.95a2.1,2.1,0,0,0,.508,1.49,1.8,1.8,0,0,0,1.389.542,1.958,1.958,0,0,0,1.473-.508,2.1,2.1,0,0,0,.5-1.524v-.336h-1.352v.3a1.426,1.426,0,0,1-.13.751.54.54,0,0,1-.458.172.494.494,0,0,1-.446-.2,1.453,1.453,0,0,1-.128-.724v-1.235h2.514V402.8a1.97,1.97,0,0,0-.485-1.433A1.838,1.838,0,0,0,727.863,400.871Zm.519,2.583H727.22v-.662a.968.968,0,0,1,.136-.591.524.524,0,0,1,.45-.183.507.507,0,0,1,.438.183.977.977,0,0,1,.138.591Z" transform="translate(-696.992 -373.77)" fill="#fff"></path></svg>